<svg width="64" height="64" viewBox="0 0 24 24" role="img" xmlns="http://www.w3.org/2000/svg">
  <rect width="24" height="24" rx="6" fill="#2563eb" />
  <g fill="none" stroke="#ffffff" stroke-width="2" stroke-linecap="round" stroke-linejoin="round">
    <path d="M4.5 16.5c-1.5 1.26-2 5-2 5s3.74-.5 5-2c.71-.84.7-2.13-.09-2.91a2.18 2.18 0 0 0-2.91-.09z" />
    <path d="m12 15-3-3a22 22 0 0 1 2-3.95 12.88 12.88 0 0 1 11-6.05c0 4.5-1.73 8.14-6.05 11a22 22 0 0 1-3.95 2z" />
    <path d="M9 12H4s.55-3.03 2-4c1.62-1.08 5 0 5 0" />
    <path d="M12 15v5s3.03-.55 4-2c1.08-1.62 0-5 0-5" />
  </g>
</svg>
