<svg width="64" height="64" viewBox="0 0 64 64" role="img" xmlns="http://www.w3.org/2000/svg" aria-label="WP Pilot favicon">
  <rect width="64" height="64" rx="14" fill="#2563eb" />
  <path fill="#ffffff" d="M49.5 14.5c-9.3 1.2-16.8 5-22.2 10.4l-7.1 7.1c-1.3 1.3-1.3 3.5 0 4.8l7 7-2.1 8.4c-.3 1.2.7 2.2 1.9 1.9l8.4-2.1 7 7c1.3 1.3 3.5 1.3 4.8 0l7.1-7.1C59 46.3 62.8 38.8 64 29.5c.1-1-.7-1.8-1.6-1.6-3.6.5-7 .9-10.1 1.2l-1.6-1.6c.3-3.1.7-6.5 1.2-10.1.1-.9-.7-1.7-1.6-1.6z" transform="translate(-8 -6)" />
  <circle cx="37" cy="27" r="4.5" fill="#2563eb" />
</svg>
